<svg width="60" height="60" viewBox="0 0 60 60" fill="none" xmlns="http://www.w3.org/2000/svg">
<rect width="60" height="60" rx="6" fill="#4A3011"/>
<g clip-path="url(#clip0_143_16)">
<path d="M30.7058 31.1737C25.4108 31.1737 21.1454 26.9082 21.1454 21.6132C21.1454 16.3182 25.4108 12.0528 30.7058 12.0528C36.0009 12.0528 40.2663 16.3182 40.2663 21.6132C40.2663 26.9082 36.0009 31.1737 30.7058 31.1737ZM30.7058 14.9944C27.0287 14.9944 24.0871 17.9361 24.0871 21.6132C24.0871 25.2903 27.0287 28.232 30.7058 28.232C34.3829 28.232 37.3246 25.2903 37.3246 21.6132C37.3246 17.9361 34.3829 14.9944 30.7058 14.9944Z" fill="white"/>
<path d="M17.7622 42.7933V49.142C17.7622 49.8709 14.8208 49.8709 14.8208 49.142V42.7933C14.8208 36.9833 21.9542 32.4976 31 32.4976C40.0458 32.4976 47.1792 36.9833 47.1792 42.7933V49.142C47.1792 49.8709 44.2379 49.8709 44.2379 49.142V42.7933C44.2379 38.8221 38.2071 35.439 31 35.439C23.793 35.439 17.7622 38.8221 17.7622 42.7933Z" fill="white"/>
</g>
<defs>
<clipPath id="clip0_143_16">
<rect width="50" height="50" fill="white" transform="translate(6 6)"/>
</clipPath>
</defs>
</svg>
