<svg width="60" height="60" viewBox="0 0 60 60" fill="none" xmlns="http://www.w3.org/2000/svg">
<rect width="60" height="60" rx="6" fill="#4A3011"/>
<g clip-path="url(#clip0_137_15)">
<path d="M40.34 47.875H19.715C18.5675 47.8748 17.4353 47.6125 16.4046 47.1081C15.374 46.6038 14.4721 45.8707 13.7678 44.9648C13.0635 44.059 12.5754 43.0042 12.3408 41.881C12.1061 40.7578 12.1311 39.5958 12.4137 38.4838L16.5937 21.42C16.669 21.1149 16.8465 20.8448 17.0967 20.6547C17.3469 20.4646 17.6546 20.3659 17.9687 20.375H41C41.3033 20.3611 41.6027 20.448 41.8514 20.6221C42.1001 20.7962 42.2842 21.0478 42.375 21.3375L47.5725 38.0575C47.9278 39.1931 48.0097 40.3967 47.8113 41.57C47.613 42.7432 47.1401 43.853 46.4312 44.8088C45.734 45.7685 44.8173 46.5476 43.7577 47.081C42.6981 47.6144 41.5262 47.8866 40.34 47.875V47.875ZM19 23.125L15.0262 39.1438C14.8493 39.8505 14.8351 40.5882 14.9848 41.3012C15.1344 42.0143 15.444 42.684 15.8902 43.2599C16.3364 43.8359 16.9076 44.303 17.5606 44.6261C18.2136 44.9492 18.9314 45.1198 19.66 45.125H40.285C41.0333 45.1262 41.7712 44.9499 42.4381 44.6104C43.105 44.271 43.6818 43.7782 44.1212 43.1725C44.5733 42.5633 44.875 41.8559 45.0016 41.108C45.1283 40.3601 45.0763 39.5928 44.85 38.8688L40.01 23.125H19Z" fill="white"/>
<path d="M35.5 31.375C35.1353 31.375 34.7856 31.2301 34.5277 30.9723C34.2699 30.7144 34.125 30.3647 34.125 30V19C34.125 17.906 33.6904 16.8568 32.9168 16.0832C32.1432 15.3096 31.094 14.875 30 14.875C28.906 14.875 27.8568 15.3096 27.0832 16.0832C26.3096 16.8568 25.875 17.906 25.875 19V30C25.875 30.3647 25.7301 30.7144 25.4723 30.9723C25.2144 31.2301 24.8647 31.375 24.5 31.375C24.1353 31.375 23.7856 31.2301 23.5277 30.9723C23.2699 30.7144 23.125 30.3647 23.125 30V19C23.125 17.1766 23.8493 15.428 25.1386 14.1386C26.428 12.8493 28.1766 12.125 30 12.125C31.8234 12.125 33.572 12.8493 34.8614 14.1386C36.1507 15.428 36.875 17.1766 36.875 19V30C36.875 30.3647 36.7301 30.7144 36.4723 30.9723C36.2144 31.2301 35.8647 31.375 35.5 31.375Z" fill="white"/>
</g>
<defs>
<clipPath id="clip0_137_15">
<rect width="44" height="44" fill="white" transform="translate(8 8)"/>
</clipPath>
</defs>
</svg>
