<svg width="236" height="62" viewBox="0 0 236 62" fill="none" xmlns="http://www.w3.org/2000/svg">
<g clip-path="url(#clip0_121_15)">
<g filter="url(#filter0_d_121_15)">
<path d="M65.3724 6.56471C65.3724 10.6902 50.6041 14.9398 33.0685 14.9398C15.5329 14.9398 1 12.3922 1 8.26667C1 4.14117 15.5329 0 33.0685 0C50.6041 0 65.3724 2.43921 65.3724 6.56471Z" fill="#4A3011"/>
<path d="M59.4219 7.46989C57.8343 9.74287 44.4989 12.1048 33.386 11.5143C20.3681 11.5143 10.8428 10.0381 7.98523 7.46989C7.98523 4.16949 17.5926 2.91766 30.5356 2.91766C43.4785 2.91766 59.4219 4.16949 59.4219 7.46989Z" fill="#FFAF52"/>
<path d="M52.1026 6.02164C52.4421 6.38164 52.0759 6.84339 51.5931 6.95182C48.2135 7.71086 42.9678 9.96705 32.6905 9.15237C22.8789 9.15237 14.0179 8.67529 14.0179 6.19999C14.0179 3.72469 23.892 3.83808 33.7035 3.83808C42.3999 3.83808 50.3971 4.21287 52.1026 6.02164Z" fill="#FFF4CE"/>
<path d="M62.3354 52.3464L61.4409 52.636C42.6555 58.7179 22.4147 58.6136 3.69297 52.3384C2.2739 51.8627 1.3175 50.5335 1.3175 49.0368V29.506V8.56191L10.8428 11.5143L20.7601 13.4557C22.1903 13.7357 23.6389 13.911 25.0946 13.9804L29.5293 14.1919C33.3648 14.3748 37.2087 14.2629 41.0271 13.8571L46.4039 13.2857L49.4391 12.7877C54.5658 11.9464 59.486 10.1385 63.9376 7.46004L64.8195 6.92941V48.9311C64.8195 50.4877 63.8163 51.867 62.3354 52.3464Z" fill="#4A3011" stroke="#4A3011"/>
<path d="M22.6517 13.1294C22.6517 13.1294 24.4314 18.2959 24.477 20.4235C24.5438 23.5418 23.1412 27.8395 22.3499 30.0033C22.0206 30.9037 21.8681 31.8633 21.9482 32.8186L22.6517 41.2117L21.8264 47.7765L19.1757 52.1529L18.4184 56.1647" stroke="#35291B"/>
<path d="M22.5837 13.1294L23.7197 11.6706" stroke="#35291B"/>
<path d="M33.1862 13.1294V12.0353" stroke="#35291B"/>
<path d="M43.7887 13.4941L42.2741 12.0353" stroke="#35291B"/>
<path d="M13.4958 10.9412C13.4958 10.9412 15.0329 17.5665 15.0784 19.6941C15.127 21.9589 14.4853 24.0484 13.8618 25.5271C13.248 26.9826 12.912 28.5864 13.2213 30.1355L14.6318 37.2L13.4958 44.8588L11.6025 49.2353L10.8452 54.3412" stroke="#35291B"/>
<path d="M13.4958 10.9412L14.6318 10.2118" stroke="#35291B"/>
<path d="M43.8567 13.1294C43.8567 13.1294 42.6071 16.8371 42.6527 18.9647C42.7027 21.2966 42.3697 23.1258 42.0516 24.3178C41.7703 25.3718 41.5744 26.4676 41.6834 27.553L42.6527 37.2L43.8567 43.7647L40.3807 52.1529L39.2448 56.8941" stroke="#35291B"/>
<path d="M52.9446 13.1294C52.9446 13.1294 50.9377 22.3077 50.9833 24.4353C51.0115 25.7516 51.337 26.9076 51.7766 27.8794C52.8544 30.2618 53.7682 33.029 52.8529 35.4785L50.9833 40.4823L52.4979 48.1412L49.4686 52.1529L47.5753 55.8" stroke="#35291B"/>
<path d="M52.8766 13.1294L50.9833 10.5765" stroke="#35291B"/>
<path d="M61.5858 12.0353C61.5858 12.0353 60.8284 19.6941 59.3138 21.5176C57.7718 23.3741 58.6057 25.7184 59.6726 27.4565C60.6943 29.1208 61.3953 31.0523 61.0753 32.9788L60.0711 39.0235L60.8284 45.2235L59.3138 48.8706L56.2845 53.9765" stroke="#35291B"/>
<path d="M61.5858 12.0353L58.1778 8.75293" stroke="#35291B"/>
<path d="M9.33054 3.28235L11.6025 4.01176" stroke="#35291B"/>
<path d="M19.5544 1.09412L22.5837 2.55294" stroke="#35291B"/>
<path d="M31.2929 0.364716V2.18824" stroke="#35291B"/>
<path d="M39.6234 0.729401L38.4874 2.55293" stroke="#35291B"/>
<path d="M50.2259 1.45883L46.4393 2.91766" stroke="#35291B"/>
<path d="M59.6925 3.28235L56.2845 4.37647" stroke="#35291B"/>
<path d="M33.2542 13.1294C33.2542 13.1294 34.6541 16.3297 34.6997 18.4573C34.7865 22.5107 33.4455 29.3206 33.2725 30.1804C33.2602 30.2413 33.2489 30.3012 33.2383 30.3623L31.2929 41.5765L32.9105 46.0884C33.1264 46.6907 33.0412 47.36 32.6811 47.8889L29.7782 52.1529V57.2588" stroke="#35291B"/>
<path d="M5.23326 8.75293C5.23326 8.75293 5.87702 12.4606 5.9226 14.5882C5.96171 16.4138 5.56445 17.996 5.09163 19.2158C4.40067 20.9983 3.94594 22.9726 4.44574 24.8179L5.9226 30.2706L3.65063 37.2L5.23326 43.7647L3.65063 47.7765V51.7882" stroke="#35291B"/>
<path d="M5.16527 9.11765L8.19456 8.02353" stroke="#35291B"/>
</g>
<path d="M84.2974 38V10.7H109.92V38H102.276V15.107L103.992 16.823H90.2254L91.9024 15.107V38H84.2974ZM130.108 38.351C127.612 38.351 125.428 37.883 123.556 36.947C121.71 35.985 120.267 34.685 119.227 33.047C118.213 31.383 117.706 29.498 117.706 27.392C117.706 25.286 118.2 23.414 119.188 21.776C120.202 20.112 121.593 18.825 123.361 17.915C125.129 16.979 127.118 16.511 129.328 16.511C131.408 16.511 133.306 16.94 135.022 17.798C136.738 18.63 138.103 19.865 139.117 21.503C140.131 23.141 140.638 25.13 140.638 27.47C140.638 27.73 140.625 28.029 140.599 28.367C140.573 28.705 140.547 29.017 140.521 29.303H123.79V25.403H136.582L133.774 26.495C133.8 25.533 133.618 24.701 133.228 23.999C132.864 23.297 132.344 22.751 131.668 22.361C131.018 21.971 130.251 21.776 129.367 21.776C128.483 21.776 127.703 21.971 127.027 22.361C126.377 22.751 125.87 23.31 125.506 24.038C125.142 24.74 124.96 25.572 124.96 26.534V27.665C124.96 28.705 125.168 29.602 125.584 30.356C126.026 31.11 126.65 31.695 127.456 32.111C128.262 32.501 129.224 32.696 130.342 32.696C131.382 32.696 132.266 32.553 132.994 32.267C133.748 31.955 134.489 31.487 135.217 30.863L139.117 34.919C138.103 36.037 136.855 36.895 135.373 37.493C133.891 38.065 132.136 38.351 130.108 38.351ZM148.455 38V16.862H155.826V24.701H163.431V16.862H170.841V38H163.431V30.59H155.826V38H148.455ZM187.265 21.269H199.94V27.041H187.265V21.269ZM187.811 32.033H202.085V38H180.167V10.7H201.578V16.667H187.811V32.033ZM195.026 8.516C194.168 8.516 193.44 8.243 192.842 7.697C192.244 7.125 191.945 6.384 191.945 5.474C191.945 4.564 192.244 3.823 192.842 3.251C193.44 2.679 194.168 2.393 195.026 2.393C195.884 2.393 196.612 2.679 197.21 3.251C197.808 3.823 198.107 4.564 198.107 5.474C198.107 6.384 197.808 7.125 197.21 7.697C196.612 8.243 195.884 8.516 195.026 8.516ZM186.758 8.516C185.9 8.516 185.172 8.243 184.574 7.697C183.976 7.125 183.677 6.384 183.677 5.474C183.677 4.564 183.976 3.823 184.574 3.251C185.172 2.679 185.9 2.393 186.758 2.393C187.616 2.393 188.344 2.679 188.942 3.251C189.54 3.823 189.839 4.564 189.839 5.474C189.839 6.384 189.54 7.125 188.942 7.697C188.344 8.243 187.616 8.516 186.758 8.516ZM224.776 38L218.341 28.133L224.308 24.623L233.512 38H224.776ZM209.956 38V16.862H217.366V38H209.956ZM215.182 30.473V24.662H222.826V30.473H215.182ZM225.049 28.25L218.107 27.548L225.205 16.862H233.044L225.049 28.25Z" fill="#2E1F0F"/>
</g>
<defs>
<filter id="filter0_d_121_15" x="-3.1825" y="0" width="72.5549" height="65.6223" filterUnits="userSpaceOnUse" color-interpolation-filters="sRGB">
<feFlood flood-opacity="0" result="BackgroundImageFix"/>
<feColorMatrix in="SourceAlpha" type="matrix" values="0 0 0 0 0 0 0 0 0 0 0 0 0 0 0 0 0 0 127 0" result="hardAlpha"/>
<feOffset dy="4"/>
<feGaussianBlur stdDeviation="2"/>
<feComposite in2="hardAlpha" operator="out"/>
<feColorMatrix type="matrix" values="0 0 0 0 0 0 0 0 0 0 0 0 0 0 0 0 0 0 0.25 0"/>
<feBlend mode="normal" in2="BackgroundImageFix" result="effect1_dropShadow_121_15"/>
<feBlend mode="normal" in="SourceGraphic" in2="effect1_dropShadow_121_15" result="shape"/>
</filter>
<clipPath id="clip0_121_15">
<rect width="235.372" height="62" fill="white"/>
</clipPath>
</defs>
</svg>
